<?xml version="1.0" encoding="utf-8"?>
<!-- Generator: Adobe Illustrator 24.0.2, SVG Export Plug-In . SVG Version: 6.00 Build 0)  -->
<svg version="1.1" xmlns="http://www.w3.org/2000/svg" xmlns:xlink="http://www.w3.org/1999/xlink" x="0px" y="0px"
	 viewBox="0 0 300 300" style="enable-background:new 0 0 300 300;" xml:space="preserve">
<style type="text/css">
	.st0{display:none;}
	.st1{fill:#FFFFFF;}
	.st2{fill:none;stroke:#FFFFFF;stroke-width:2;stroke-miterlimit:10;}
</style>
<g id="Layer_1">
	<rect x="-32" y="-40" class="st0" width="1365" height="694"/>
	<g>
		<path class="st1" d="M180.05,176.68c0,1.54,0,2.95,0,4.44c1.45,0,2.9,0,4.39,0c0,0.78,0,1.48,0,2.23c-1.44,0-2.87,0-4.35,0
			c-0.18,0.97-0.83,1.18-1.7,1.15c-1.18-0.04-2.36-0.01-3.55-0.01c-0.97,0-1.19-0.16-1.55-1.11c-0.31,0-0.63,0-0.95,0
			c-10.01,0-20.02,0.01-30.04,0c-4.86-0.01-8.86-3.23-9.88-7.96c-0.16-0.76-0.22-1.56-0.22-2.34c-0.02-6.3-0.01-12.61-0.01-18.91
			c0-0.25,0-0.5,0-0.8c-5.57,0-11.08,0-16.64,0c0-0.75,0-1.46,0-2.24c0.25,0,0.49,0,0.74,0c9.25,0,18.49,0,27.74,0
			c2.4,0,3.71,1.33,3.73,3.75c0.02,1.76-0.08,3.54,0.14,5.27c0.45,3.53,3.45,6.28,7.01,6.51c1.66,0.11,3.33,0.02,5.03,0.02
			c0-1.46,0-2.88,0-4.43c-0.38,0-0.79,0-1.19,0c-1.07,0-2.13,0.01-3.2,0c-1.91-0.03-3.32-1.45-3.36-3.36
			c-0.03-1.85,0.1-3.72-0.14-5.55c-0.52-3.92-3.73-6.63-7.68-6.66c-3.55-0.03-7.09-0.01-10.64-0.01c-5.82,0-11.63,0-17.45,0
			c-0.25,0-0.5,0-0.78,0c0-0.75,0-1.44,0-2.2c5.53,0,11.05,0,16.61,0c0-1.5,0-2.93,0-4.44c-5.51,0-11.03,0-16.6,0
			c0-0.78,0-1.48,0-2.24c5.52,0,11.03,0,16.59,0c0-1.49,0-2.94,0-4.46c-5.52,0-11.04,0-16.6,0c0-0.76,0-1.45,0-2.21
			c5.52,0,11.04,0,16.63,0c0-1.6,0.04-3.12-0.02-4.64c-0.03-0.63-0.53-0.95-1.17-0.95c-1.41,0-2.83,0-4.31,0
			c-0.16,0.99-0.86,1.15-1.74,1.12c-1.16-0.04-2.32-0.01-3.48-0.01c-0.99,0-1.2-0.15-1.56-1.1c-1.42,0-2.85,0-4.34,0
			c0-0.74,0-1.44,0-2.22c1.43,0,2.87,0,4.35,0c0-1.5,0-2.93,0-4.44c-1.43,0-2.88,0-4.37,0c0-0.78,0-1.48,0-2.23
			c1.45,0,2.87,0,4.35,0c0.18-0.98,0.83-1.18,1.69-1.15c1.18,0.04,2.36,0.01,3.55,0.01c0.97,0,1.18,0.15,1.55,1.11
			c1.4,0,2.81,0,4.22,0c5.77,0.02,10.16,4.4,10.18,10.17c0,1.41,0,2.81,0,4.26c8.54,0,17.01,0,25.56,0c0-5.15,0-10.3,0-15.49
			c0.78,0,1.48,0,2.24,0c0,11.83,0,23.64,0,35.5c1.5,0,2.94,0,4.44,0c0-11.81,0-23.62,0-35.49c0.75,0,1.45,0,2.24,0
			c0,5.13,0,10.29,0,15.49c2.99,0,5.9,0,8.86,0c0,0.75,0,1.46,0,2.24c-2.92,0-5.84,0-8.81,0c0,1.5,0,2.93,0,4.44
			c2.92,0,5.85,0,8.82,0c0,0.78,0,1.48,0,2.24c-2.93,0-5.85,0-8.81,0c0,3.72,0,7.4,0,11.07c0.94,0.4,1.06,0.58,1.06,1.67
			c0,1.16-0.03,2.32,0.01,3.48c0.03,0.84-0.19,1.46-1.1,1.63c0,0.57,0,1.09,0,1.45c0.55-0.12,1.09-0.33,1.64-0.36
			c1.13-0.06,2.27,0.01,3.41-0.03c0.84-0.03,1.46,0.19,1.65,1.13c0.72,0,1.41,0,2.14,0c0,0.73,0,1.41,0,2.18c-0.68,0-1.39,0-2.14,0
			c0,1.52,0,2.96,0,4.46c0.69,0,1.38,0,2.12,0c0,0.75,0,1.45,0,2.22c-0.69,0-1.4,0-2.08,0c-0.41,1-0.61,1.14-1.63,1.14
			c-1.16,0-2.32,0-3.48,0c-1.14,0-1.29-0.09-1.75-1.1c-2.89,0-5.78,0-8.74,0c-0.21,0.99-0.93,1.14-1.82,1.11
			c-1.16-0.04-2.32-0.01-3.48-0.01c-0.92,0-1.14-0.17-1.5-1.11c-1.43,0-2.89,0.01-4.34,0c-4.83-0.03-8.92-3.27-9.82-8.02
			c-0.32-1.71-0.21-3.5-0.23-5.26c-0.03-2.23-0.07-2.29-2.3-2.29c-0.69,0-1.38,0-2.12,0c-0.01,0.27-0.03,0.5-0.03,0.72
			c0,6.28,0,12.56,0,18.84c0,1.24,0.33,1.57,1.56,1.57c10.01,0,20.02,0,30.04,0c0.18,0,0.37,0,0.63,0c0.16-1,0.86-1.15,1.74-1.12
			c1.16,0.04,2.32,0.01,3.48,0.01c0.99,0,1.2,0.15,1.56,1.1c1.42,0,2.85,0,4.34,0c0,0.74,0,1.44,0,2.22
			C183.01,176.68,181.56,176.68,180.05,176.68z M166.67,157.86c-0.96-0.4-1.09-0.59-1.09-1.61c0-1.18,0.03-2.36-0.01-3.54
			c-0.03-0.84,0.19-1.46,1.07-1.63c0-3.71,0-7.38,0-11.03c-8.54,0-17.02,0-25.5,0c0,1.48,0,2.91,0,4.39c1.1,0,2.16,0,3.22,0
			c5.67,0.03,10.07,4.43,10.09,10.1c0.01,1.41-0.01,2.83,0.01,4.24c0.01,0.76,0.41,1.21,1.13,1.22c1.46,0.02,2.92,0.01,4.36,0.01
			c0.37-0.96,0.59-1.11,1.55-1.11c1.18,0,2.36-0.04,3.54,0.02c0.55,0.03,1.09,0.24,1.63,0.36
			C166.67,158.91,166.67,158.38,166.67,157.86z M173.34,176.69c-0.35,0-0.63,0-0.91,0c-9.92,0-19.84,0-29.76,0
			c-2.5,0-3.8-1.31-3.8-3.82c0-6.23,0-12.47,0-18.7c0-0.27,0-0.53,0-0.8c-1.53,0-2.96,0-4.45,0c0,0.26,0,0.48,0,0.71
			c0,6.3,0,12.6,0,18.91c0,4.82,3.35,8.15,8.18,8.15c9.99,0,19.98,0,29.96,0c0.25,0,0.49,0,0.76,0
			C173.34,179.63,173.34,178.2,173.34,176.69z M134.43,144.39c1.53,0,2.97,0,4.41,0c0.02-0.09,0.04-0.14,0.04-0.18
			c0-5.95,0.04-11.91-0.02-17.86c-0.03-3.4-2.47-6.51-5.81-7.17c-2.06-0.4-4.22-0.31-6.4-0.44c0,0.9,0,1.62,0,2.33
			c0,0.73,0,1.47,0,2.24c1.43,0,2.77,0,4.11,0c2.32,0,3.68,1.35,3.68,3.66c0,4.98,0,9.96,0,14.94
			C134.43,142.72,134.43,143.53,134.43,144.39z M141.13,137.72c8.55,0,17.03,0,25.52,0c0-1.48,0-2.9,0-4.36c-8.52,0-17.01,0-25.52,0
			C141.13,134.82,141.13,136.24,141.13,137.72z M166.72,166.63c2.98,0,5.9,0,8.83,0c0-1.48,0-2.91,0-4.4c-0.21,0-0.39,0-0.57,0
			c-1.33-0.01-1.62-0.31-1.62-1.64c0-0.92,0-1.84,0-2.75c-1.53,0-2.97,0-4.45,0c0,1.09,0.01,2.13,0,3.17
			c-0.01,0.78-0.43,1.19-1.2,1.23c-0.32,0.01-0.64,0-0.99,0C166.72,163.73,166.72,165.16,166.72,166.63z M122.25,117.76
			c0,2.2,0,4.4,0,6.61c0.72,0,1.42,0,2.12,0c0-2.23,0-4.41,0-6.61C123.65,117.76,122.98,117.76,122.25,117.76z M174.46,153.38
			c-2.24,0-4.42,0-6.61,0c0,0.74,0,1.44,0,2.13c2.23,0,4.41,0,6.61,0C174.46,154.79,174.46,154.12,174.46,153.38z M164.43,167.78
			c0-2.24,0-4.42,0-6.61c-0.74,0-1.44,0-2.13,0c0,2.23,0,4.41,0,6.61C163.02,167.78,163.68,167.78,164.43,167.78z M177.86,161.15
			c0,2.24,0,4.42,0,6.59c0.75,0,1.45,0,2.14,0c0-2.22,0-4.39,0-6.59C179.28,161.15,178.6,161.15,177.86,161.15z M177.77,182.22
			c0-2.23,0-4.41,0-6.59c-0.75,0-1.45,0-2.15,0c0,2.22,0,4.39,0,6.59C176.34,182.22,177.03,182.22,177.77,182.22z"/>
	</g>
</g>
<g id="Layer_2">
	<circle class="st2" cx="150" cy="150" r="129.5"/>
</g>
</svg>
