<?xml version="1.0" encoding="utf-8"?>
<!-- Generator: Adobe Illustrator 24.0.2, SVG Export Plug-In . SVG Version: 6.00 Build 0)  -->
<svg version="1.1" xmlns="http://www.w3.org/2000/svg" xmlns:xlink="http://www.w3.org/1999/xlink" x="0px" y="0px"
	 viewBox="0 0 300 300" style="enable-background:new 0 0 300 300;" xml:space="preserve">
<style type="text/css">
	.st0{display:none;}
	.st1{fill:#FFFFFF;}
	.st2{fill:none;stroke:#FFFFFF;stroke-width:2;stroke-miterlimit:10;}
</style>
<g id="Layer_1">
	<rect x="-698" y="-363" class="st0" width="1365" height="694"/>
	<g>
		<path class="st1" d="M120.36,192.17c-0.7-0.36-1.46-0.64-2.07-1.11c-1.02-0.79-1.53-1.91-1.57-3.21
			c-0.01-0.22-0.01-0.44-0.01-0.66c0-24.74,0.02-49.48-0.02-74.21c0-2.85,1.82-4.57,3.72-4.89c0.38-0.06,0.76-0.08,1.15-0.08
			c18.97,0,37.94,0,56.91,0c2.97,0,4.85,1.85,4.85,4.81c0,24.85,0,49.7,0.01,74.54c0,2.56-1.34,4.04-3.66,4.82
			C159.9,192.17,140.13,192.17,120.36,192.17z M180.85,150.17c0-12.36,0-24.71,0-37.07c0-1.96-0.67-2.63-2.6-2.63
			c-18.83,0-37.67,0-56.5,0c-1.88,0-2.56,0.69-2.56,2.59c0,24.69,0,49.37,0,74.06c0,1.93,0.68,2.59,2.64,2.59
			c18.78,0,37.56,0,56.34,0c2.05,0,2.69-0.65,2.69-2.71C180.85,174.72,180.85,162.44,180.85,150.17z"/>
		<path class="st1" d="M125.34,183.59c16.48,0,32.86,0,49.29,0c0-22.33,0-44.62,0-66.98c-16.4,0-32.8,0-49.29,0
			c0,0.36,0,0.71,0,1.06c0,14.66,0,29.32,0,43.98c0,0.33,0.01,0.66-0.02,0.99c-0.08,0.67-0.49,1.04-1.14,1.08
			c-0.62,0.04-1.06-0.29-1.22-0.89c-0.08-0.29-0.08-0.6-0.08-0.89c0-15.1,0-30.19,0-45.29c0-1.89,0.68-2.56,2.59-2.56
			c16.36,0,32.73,0,49.09,0c1.91,0,2.59,0.66,2.59,2.55c0,22.3,0,44.61,0,66.91c0,1.89-0.68,2.56-2.59,2.56
			c-16.36,0-32.73,0-49.09,0c-1.9,0-2.59-0.68-2.59-2.56c0-4.88,0-9.75,0-14.63c0-0.16-0.01-0.33,0-0.49
			c0.06-0.82,0.57-1.36,1.26-1.35c0.71,0.01,1.19,0.54,1.19,1.39c0.01,2.96,0.01,5.92,0.01,8.88
			C125.34,179.38,125.34,181.44,125.34,183.59z"/>
		<path class="st1" d="M168.95,128.9c0-1.63,0-3.18,0-4.77c-12.63,0-25.21,0-37.86,0c0,1.55,0,3.1,0,4.77c0.3,0,0.62,0,0.94,0
			c8.23,0,16.47,0,24.7,0c0.22,0,0.44-0.01,0.66,0c0.89,0.04,1.41,0.52,1.39,1.28c-0.02,0.73-0.51,1.18-1.39,1.18
			c-3.54,0.01-7.08,0.01-10.62,0.01c-5.08,0-10.16,0-15.23,0c-2.02,0-2.97-0.94-2.97-2.96c0-1.4-0.02-2.79,0.01-4.19
			c0.02-1.55,1.05-2.58,2.59-2.59c12.57-0.01,25.14-0.01,37.71,0c1.54,0,2.57,1.03,2.6,2.57c0.02,1.53,0.02,3.07,0,4.6
			c-0.03,1.5-1.05,2.53-2.54,2.55c-1.84,0.03-3.68,0.02-5.52,0c-0.87-0.01-1.36-0.46-1.38-1.19c-0.02-0.76,0.5-1.26,1.4-1.27
			c1.54-0.02,3.07-0.01,4.61-0.01C168.32,128.9,168.62,128.9,168.95,128.9z"/>
		<path class="st1" d="M164.24,158.48c-0.59,0.48-1.14,0.94-1.69,1.38c-0.64,0.51-1.34,0.6-2.08,0.26
			c-0.74-0.35-1.08-0.97-1.08-1.79c0-2.44,0.02-4.87-0.02-7.31c-0.01-0.36-0.17-0.8-0.42-1.07c-2.13-2.35-2.58-5.63-1.1-8.38
			c1.42-2.63,4.45-4.19,7.29-3.74c3.27,0.51,5.67,2.76,6.21,5.93c0.39,2.29-0.24,4.32-1.75,6.1c-0.28,0.33-0.49,0.85-0.5,1.28
			c-0.05,2.3-0.03,4.6-0.02,6.9c0,0.91-0.23,1.69-1.13,2.1c-0.89,0.4-1.64,0.11-2.33-0.5C165.21,159.25,164.75,158.9,164.24,158.48z
			 M168.99,144.98c-0.01-2.63-2.13-4.75-4.76-4.74c-2.61,0-4.76,2.14-4.78,4.75c-0.01,2.63,2.17,4.79,4.82,4.78
			C166.91,149.74,169,147.62,168.99,144.98z M161.94,152.07c0,1.6,0,3.3,0,4.85c0.78-0.36,1.56-1.01,2.33-0.99
			c0.78,0.01,1.56,0.67,2.3,1.03c0-1.65,0-3.34,0-4.89C165,152.07,163.49,152.07,161.94,152.07z"/>
		<path class="st1" d="M138.26,175.04c1-1.02,2.01-2.04,3.01-3.07c0.13-0.14,0.22-0.32,0.33-0.47c0.45-0.58,1.02-0.75,1.66-0.37
			c0.6,0.36,0.69,0.91,0.49,1.57c-0.16,0.51-0.33,1.06-0.29,1.58c0.07,0.88,0.88,1.22,1.53,0.63c0.6-0.54,1.09-1.22,1.58-1.87
			c0.4-0.54,0.8-0.99,1.55-0.8c0.7,0.18,0.88,0.71,0.95,1.37c0.19,1.8,0.91,2.48,2.74,2.45c1.14-0.02,2.29-0.21,3.42-0.37
			c0.89-0.13,1.51,0.17,1.68,0.88c0.16,0.7-0.27,1.34-1.15,1.49c-1.27,0.22-2.55,0.43-3.83,0.46c-2.22,0.06-3.29-0.51-4.65-2.23
			c-2.52,2.29-4.63,1.57-6.05-0.59c-0.49,0.37-0.96,0.79-1.48,1.11c-0.51,0.31-1.06,0.6-1.63,0.73c-1.61,0.37-3-0.88-2.62-2.49
			c0.28-1.2,0.93-2.31,1.45-3.44c0.2-0.43,0.51-0.81,0.8-1.24c-1.58,0.23-3.05,0.54-4.54,0.64c-1.16,0.07-2.35-0.07-3.52-0.21
			c-0.81-0.09-1.22-0.72-1.08-1.45c0.13-0.67,0.73-1.06,1.49-0.95c4.35,0.63,8.22-0.37,11.48-3.4c0.54-0.5,1.12-0.57,1.7-0.1
			c0.54,0.43,0.59,1.08,0.12,1.76c-1.42,2.05-2.86,4.08-4.27,6.14c-0.43,0.63-0.76,1.31-1.14,1.97
			C138.07,174.86,138.16,174.95,138.26,175.04z"/>
		<path class="st1" d="M139.87,145.95c-3.18,0-6.36,0-9.55-0.01c-0.32,0-0.67-0.02-0.97-0.12c-0.6-0.2-0.85-0.67-0.77-1.29
			c0.07-0.59,0.43-0.93,1.01-1.03c0.16-0.03,0.33-0.02,0.49-0.02c6.53,0,13.06,0,19.59,0c0.16,0,0.33-0.01,0.49,0.02
			c0.62,0.09,0.99,0.45,1.05,1.08c0.06,0.62-0.22,1.08-0.82,1.26c-0.31,0.09-0.65,0.11-0.97,0.11
			C146.24,145.95,143.06,145.95,139.87,145.95z"/>
		<path class="st1" d="M137.49,154.85c2.44,0,4.88,0,7.32,0c1.05,0,1.59,0.43,1.59,1.23c0,0.8-0.56,1.23-1.6,1.23
			c-4.94,0-9.88,0.01-14.81,0c-0.9,0-1.43-0.48-1.43-1.24c0-0.76,0.52-1.2,1.43-1.22c0.16,0,0.33,0,0.49,0
			C132.82,154.85,135.16,154.85,137.49,154.85z"/>
		<path class="st1" d="M134.86,140.23c-1.62,0-3.23,0.01-4.85,0c-0.92-0.01-1.43-0.45-1.43-1.21c0-0.76,0.52-1.24,1.42-1.24
			c3.29-0.01,6.58-0.01,9.87,0c0.9,0,1.43,0.48,1.44,1.22c0,0.75-0.52,1.22-1.42,1.23C138.2,140.23,136.53,140.23,134.86,140.23z"/>
		<path class="st1" d="M145.02,151.61c-1.56,0-3.12,0.01-4.69,0c-0.91-0.01-1.46-0.46-1.48-1.18c-0.02-0.74,0.56-1.27,1.5-1.27
			c3.12-0.01,6.25-0.01,9.37,0c0.97,0,1.51,0.47,1.51,1.24c0,0.78-0.52,1.21-1.52,1.21C148.14,151.61,146.58,151.61,145.02,151.61z"
			/>
		<path class="st1" d="M131.97,151.6c-0.71,0-1.43,0.02-2.14-0.01c-0.77-0.03-1.22-0.46-1.26-1.14c-0.04-0.71,0.41-1.27,1.19-1.29
			c1.45-0.05,2.91-0.04,4.36,0c0.72,0.02,1.2,0.59,1.2,1.22c0,0.67-0.52,1.18-1.29,1.21C133.34,151.62,132.66,151.6,131.97,151.6z"
			/>
		<path class="st1" d="M148.12,140.23c-0.6,0-1.2,0.01-1.8,0c-0.79-0.02-1.28-0.48-1.3-1.18c-0.02-0.7,0.46-1.24,1.22-1.26
			c1.26-0.03,2.52-0.03,3.77,0c0.76,0.02,1.24,0.57,1.22,1.26c-0.02,0.7-0.51,1.15-1.3,1.18
			C149.32,140.24,148.72,140.23,148.12,140.23z"/>
	</g>
</g>
<g id="Layer_2">
	<circle class="st2" cx="150" cy="150" r="129.5"/>
</g>
</svg>
