<?xml version="1.0" encoding="utf-8"?>
<!-- Generator: Adobe Illustrator 24.0.2, SVG Export Plug-In . SVG Version: 6.00 Build 0)  -->
<svg version="1.1" xmlns="http://www.w3.org/2000/svg" xmlns:xlink="http://www.w3.org/1999/xlink" x="0px" y="0px"
	 viewBox="0 0 300 300" style="enable-background:new 0 0 300 300;" xml:space="preserve">
<style type="text/css">
	.st0{display:none;}
	.st1{fill:#FFFFFF;}
	.st2{fill:none;stroke:#FFFFFF;stroke-width:2;stroke-miterlimit:10;}
</style>
<g id="Layer_1">
	<rect x="-32" y="-363" class="st0" width="1365" height="694"/>
	<g>
		<path class="st1" d="M137.68,193c-1.8-0.58-3.24-1.64-3.39-3.61c-0.18-2.36-0.2-4.76,0-7.12c0.18-2.15,1.99-3.54,4.18-3.58
			c1.39-0.03,2.78-0.01,4.28-0.01c0-1.17,0.03-2.25-0.03-3.33c-0.01-0.17-0.4-0.41-0.65-0.47c-4.34-1.02-8.37-2.79-11.98-5.41
			c-8.12-5.91-13-13.84-14.21-23.84c-1.83-15.14,6.02-29.11,19.77-35.52c3.57-1.66,7.34-2.64,11.27-2.97
			c0.22-0.02,0.43-0.09,0.64-0.14c1.56,0,3.13,0,4.69,0c1.7,0.27,3.42,0.47,5.1,0.83c13.63,2.94,24.28,14.27,26.43,28.1
			c2.79,17.91-8.41,34.71-25.95,38.93c-0.24,0.06-0.47,0.14-0.73,0.22c0,1.17,0,2.31,0,3.55c0.28,0.02,0.55,0.04,0.81,0.05
			c1.17,0.01,2.35-0.02,3.52,0.01c2.34,0.07,4.13,1.82,4.2,4.16c0.05,1.99,0.05,3.97,0,5.96c-0.04,1.85-1.22,3.38-2.96,3.98
			c-0.18,0.06-0.36,0.14-0.54,0.21C154,193,145.84,193,137.68,193z M181.4,141.44c0.04-17.35-14.04-31.51-31.4-31.57
			c-17.33-0.06-31.51,14.09-31.56,31.51c-0.05,17.36,14.14,31.59,31.49,31.57C167.28,172.92,181.36,158.83,181.4,141.44z
			 M137.09,187.28c-0.21,2.46,0.16,2.86,2.47,2.86c6.29,0,12.57,0,18.86,0c0.92,0,1.84,0.01,2.77,0c1.06-0.02,1.59-0.55,1.63-1.61
			c0.01-0.38,0-0.77,0-1.25c-0.88,0-1.68,0-2.49,0c-1.12-0.01-1.8-0.54-1.82-1.42c-0.02-0.88,0.66-1.43,1.78-1.44
			c0.83-0.01,1.65,0,2.46,0c0.21-1.85,0.17-2.93-2.43-2.89c-6.42,0.09-12.85,0.03-19.27,0.03c-0.84,0-1.68-0.02-2.51,0.01
			c-0.88,0.03-1.41,0.53-1.48,1.39c-0.04,0.46-0.01,0.93-0.01,1.46c0.41,0,0.72,0,1.02,0c5.17,0,10.34,0,15.5,0
			c0.28,0,0.56-0.02,0.84,0.02c0.69,0.1,1.12,0.51,1.21,1.2c0.1,0.72-0.22,1.27-0.91,1.51c-0.33,0.12-0.71,0.12-1.07,0.12
			c-5.2,0.01-10.39,0.01-15.59,0.01C137.74,187.28,137.43,187.28,137.09,187.28z M154.16,175.68c-2.84,0-5.65,0-8.47,0
			c0,0.93,0,1.94,0,2.95c2.86,0,5.64,0,8.47,0C154.16,177.61,154.16,176.64,154.16,175.68z"/>
		<path class="st1" d="M178.54,141.44c-0.05,15.85-12.97,28.73-28.68,28.62c-15.83-0.12-28.58-12.92-28.56-28.67
			c0.02-15.85,12.96-28.76,28.73-28.66C165.81,112.82,178.59,125.69,178.54,141.44z M175.67,141.42
			c0.03-14.2-11.52-25.81-25.72-25.84c-14.16-0.03-25.73,11.54-25.79,25.79c-0.05,14.19,11.5,25.78,25.73,25.81
			C164.09,167.22,175.64,155.68,175.67,141.42z"/>
		<path class="st1" d="M151.35,124.07c2.07,0.56,3.97,1.07,5.96,1.61c0.37-0.64,0.82-1.41,1.27-2.18c0.53-0.88,1.27-1.15,2.03-0.73
			c0.78,0.42,0.95,1.25,0.43,2.17c-0.42,0.76-0.86,1.5-0.93,1.94c1.42,1.41,2.84,2.81,4.26,4.22c-0.11,0.15-0.23,0.3-0.34,0.45
			c0.74-0.42,1.48-0.85,2.23-1.27c0.93-0.53,1.76-0.39,2.2,0.35c0.47,0.78,0.18,1.56-0.79,2.14c-0.72,0.43-1.44,0.84-2.08,1.21
			c0.54,2,1.06,3.93,1.61,5.96c0.73,0,1.6-0.01,2.46,0c1.05,0.02,1.71,0.58,1.71,1.44c0,0.87-0.63,1.4-1.7,1.42
			c-0.81,0.01-1.62,0.01-2.43,0.02c-0.05,0-0.1,0.04-0.04,0.02c-0.53,2.01-1.04,3.94-1.57,5.96c0.69,0.41,1.5,0.88,2.35,1.38
			c-0.48,0.84-0.93,1.61-1.43,2.48c-1.33-0.78-2.64-1.5-3.89-2.31c-0.65-0.43-0.68-1.16-0.21-2.03c1.29-2.4,1.86-4.94,1.75-7.67
			c-0.31-7.73-7.1-13.96-14.82-13.58c-10.69,0.54-17,11.65-12.02,21.17c0.62,1.18,0.44,1.8-0.72,2.48
			c-1.06,0.62-2.12,1.24-3.19,1.84c-0.87,0.49-1.68,0.31-2.11-0.44c-0.43-0.74-0.17-1.52,0.7-2.04c0.76-0.46,1.53-0.9,2.19-1.28
			c-0.53-2.02-1.05-3.96-1.59-6c-0.77,0-1.66,0.01-2.55,0c-1.01-0.02-1.62-0.56-1.62-1.42c0-0.84,0.63-1.42,1.62-1.44
			c0.89-0.02,1.78,0,2.54,0c0.54-2.01,1.05-3.92,1.6-5.97c-0.59-0.34-1.33-0.77-2.06-1.2c-0.97-0.57-1.27-1.36-0.81-2.14
			c0.44-0.74,1.27-0.88,2.2-0.36c0.37,0.2,0.73,0.41,1.09,0.62c0.36,0.21,0.72,0.42,0.76,0.27c1.41-1.41,2.82-2.83,4.24-4.24
			c0.15,0.1,0.31,0.21,0.46,0.31c-0.42-0.74-0.85-1.48-1.27-2.23c-0.56-0.99-0.41-1.81,0.4-2.25c0.78-0.42,1.51-0.14,2.07,0.81
			c0.43,0.72,0.84,1.45,1.21,2.1c1.97-0.54,3.89-1.06,5.96-1.62c0-0.7-0.01-1.56,0-2.42c0.02-1.11,0.52-1.71,1.4-1.73
			c0.92-0.02,1.45,0.6,1.47,1.75C151.36,122.51,151.35,123.34,151.35,124.07z"/>
		<path class="st1" d="M146.89,136.52c-0.43-1.37-0.84-2.68-1.24-3.99c-0.31-1.04,0-1.77,0.85-2.06c0.83-0.28,1.55,0.16,1.88,1.18
			c0.43,1.33,0.83,2.66,1.22,3.92c0.76,0.14,1.47,0.18,2.13,0.39c3.33,1.07,4.9,4.94,3.24,8.04c-0.32,0.59-0.27,0.99,0.05,1.5
			c0.45,0.71,0.86,1.44,1.26,2.17c0.87,1.6,0.28,3.44-1.38,4.13c-1,0.41-2.05,0.75-3.11,0.98c-1.82,0.41-3.4-0.85-3.54-2.73
			c-0.02-0.22-0.03-0.45-0.04-0.67c-0.05-1.48-0.29-2.6-1.8-3.6c-3.04-2.01-2.94-6.52-0.09-8.83
			C146.49,136.83,146.67,136.69,146.89,136.52z M152.77,141.41c0-1.6-1.26-2.86-2.87-2.85c-1.57,0.01-2.82,1.23-2.84,2.8
			c-0.02,1.59,1.25,2.9,2.83,2.92C151.46,144.29,152.77,142.99,152.77,141.41z M151.13,150.03c0.96-0.3,1.82-0.57,2.74-0.86
			c-0.55-0.94-1.03-1.75-1.51-2.56c-0.52,0.17-0.96,0.31-1.47,0.47C150.97,148.03,151.04,148.97,151.13,150.03z"/>
		<path class="st1" d="M148.47,158.57c0.01,2.4-1.92,4.35-4.29,4.33c-2.33-0.01-4.26-1.94-4.28-4.28c-0.02-2.37,1.92-4.31,4.31-4.31
			C146.58,154.32,148.46,156.2,148.47,158.57z M144.2,157.19c-0.8-0.01-1.45,0.63-1.44,1.42c0.01,0.77,0.69,1.44,1.46,1.42
			c0.75-0.02,1.36-0.64,1.38-1.4C145.62,157.81,145.02,157.2,144.2,157.19z"/>
		<path class="st1" d="M151.36,158.58c0.01-2.37,1.89-4.25,4.26-4.26c2.4-0.01,4.34,1.93,4.32,4.3c-0.02,2.33-1.95,4.27-4.28,4.28
			C153.29,162.93,151.35,160.97,151.36,158.58z M157.07,158.61c0.01-0.78-0.64-1.42-1.44-1.42c-0.78,0.01-1.37,0.58-1.39,1.36
			c-0.02,0.8,0.59,1.46,1.38,1.48C156.38,160.05,157.06,159.38,157.07,158.61z"/>
	</g>
</g>
<g id="Layer_2">
	<circle class="st2" cx="150" cy="150" r="129.5"/>
</g>
</svg>
