<?xml version="1.0" encoding="utf-8"?>
<!-- Generator: Adobe Illustrator 24.0.2, SVG Export Plug-In . SVG Version: 6.00 Build 0)  -->
<svg version="1.1" xmlns="http://www.w3.org/2000/svg" xmlns:xlink="http://www.w3.org/1999/xlink" x="0px" y="0px"
	 viewBox="0 0 300 300" style="enable-background:new 0 0 300 300;" xml:space="preserve">
<style type="text/css">
	.st0{display:none;}
	.st1{fill:#FFFFFF;}
	.st2{fill:none;stroke:#FFFFFF;stroke-width:2;stroke-miterlimit:10;}
</style>
<g id="Layer_1">
	<rect x="-365" y="-363" class="st0" width="1365" height="694"/>
	<g>
		<path class="st1" d="M144.21,157.17c1.01,0,1.88,0,2.79,0c0.18-3.89,0.23-7.73-1.07-11.44c-0.09-0.25-0.14-0.51-0.2-0.77
			c-0.28-1.21,0.31-1.95,1.57-1.97c0.35-0.01,0.71,0,1.18,0c0-0.38,0-0.73,0-1.07c0-10.32,0.01-20.63-0.02-30.95
			c0-0.94,0.26-1.64,0.96-2.26c0.73-0.65,1.39-1.38,2.08-2.06c0.92-0.9,1.5-0.78,2.53,0c2.39,1.82,3.13,4.08,3.06,7.12
			c-0.21,9.36-0.08,18.73-0.08,28.1c0,0.35,0,0.7,0,1.13c0.52,0,0.96-0.02,1.4,0c1.03,0.06,1.59,0.82,1.39,1.83
			c-0.06,0.29-0.13,0.58-0.22,0.86c-1.29,3.71-1.28,7.55-1.08,11.47c1.84,0,3.68,0,5.59,0c0.01-0.29,0.04-0.58,0.04-0.86
			c0-10.55,0-21.1-0.03-31.66c0-0.38-0.17-0.9-0.44-1.12c-3.27-2.71-4.49-6.11-3.43-10.22c0.97-3.77,4.19-6.4,8.26-6.93
			c0.79-0.1,1.58-0.24,2.37-0.34c1.28-0.15,2.05,0.75,1.66,1.98c-0.76,2.36-1.56,4.72-2.36,7.14c0.51,0.22,0.98,0.43,1.56,0.69
			c0.42-1.04,0.84-2.04,1.24-3.04c0.41-1.01,0.74-2.07,1.26-3.03c0.23-0.42,0.82-0.83,1.28-0.86c0.41-0.03,1.04,0.37,1.25,0.76
			c1.01,1.84,1.94,3.73,2.83,5.63c0.17,0.36,0.13,0.87,0.04,1.27c-0.17,0.75-0.46,1.47-0.69,2.19c1.09,1.21,1.11,1.44,0.26,2.86
			c-1.11,1.85-2.24,3.7-3.33,5.57c-0.2,0.34-0.33,0.77-0.33,1.15c-0.02,9.4-0.01,18.79-0.01,28.19c0,0.2,0,0.4,0,0.7
			c0.92,0,1.77-0.01,2.62,0c1.11,0.02,1.64,0.53,1.64,1.64c0.01,2.7-0.01,5.39,0.01,8.09c0.01,0.96-0.49,1.47-1.43,1.71
			c0,0.35,0,0.7,0,1.05c0,6.11,0,12.21,0,18.32c0,3.85-2.35,6.18-6.22,6.18c-14.82,0-29.64,0-44.46,0c-3.91,0-6.24-2.33-6.24-6.25
			c0-6.4,0-12.8,0-19.28c-1.29-0.27-1.46-1.19-1.44-2.33c0.05-2.34,0.01-4.68,0.02-7.02c0-1.71,0.39-2.11,2.07-2.11
			c3.23,0,6.46,0,9.69,0c0.32,0,0.64,0,1.04,0c0-0.28,0-0.48,0-0.68c0-6.28,0-12.57,0-18.85c0-1.16-0.26-1.51-1.38-1.79
			c-0.01,0.32-0.04,0.63-0.04,0.94c0,3.79,0,7.59,0,11.38c0,1.4-0.47,1.87-1.86,1.88c-1.19,0-2.37,0.01-3.56,0
			c-1.03-0.01-1.49-0.35-1.7-1.32c-1-4.54-2.17-9.04-2.57-13.69c-0.04-0.52-0.29-1.08-0.59-1.51c-1.47-2.06-1.47-4.64,0.02-6.72
			c0.21-0.29,0.37-0.67,0.42-1.03c0.65-4.57,1.28-9.14,1.92-13.71c0.1-0.7,0.21-1.41,0.39-2.09c0.83-3.18,4.22-4.93,7.2-3.59
			c2.73,1.22,5.38,2.6,8.02,4.01c0.41,0.22,0.77,0.92,0.8,1.42c0.1,1.74,0.05,3.5,0.03,5.24c-0.01,1.16-0.53,1.68-1.69,1.69
			c-1.96,0.01-3.91,0-5.87,0c-0.29,0-0.58,0-0.92,0c0,1.91,0,3.76,0,5.69c1.75,0,3.46,0,5.17,0c4.57,0.01,7.58,3,7.58,7.56
			c0,8,0,16.01,0,24.01C144.21,156.41,144.21,156.76,144.21,157.17z M175.52,168.66c-17.13,0-34.15,0-51.23,0c0,0.29,0,0.53,0,0.76
			c0,6.25,0,12.51,0,18.76c0,2.05,1.14,3.18,3.2,3.18c14.94,0,29.88,0,44.82,0c2.1,0,3.21-1.13,3.21-3.26c0-3.65,0-7.29,0-10.94
			C175.52,174.35,175.52,171.54,175.52,168.66z M122.9,165.69c18.05,0,36.02,0,53.99,0c0-1.89,0-3.71,0-5.58
			c-18.01,0-35.98,0-53.99,0C122.9,161.98,122.9,163.8,122.9,165.69z M169.15,109.2c-0.23,0-0.34-0.01-0.46,0
			c-2.79,0.32-5.1,2.31-5.78,4.95c-0.71,2.78,0.32,5.65,2.75,7.23c0.99,0.65,1.34,1.39,1.33,2.56c-0.04,10.73-0.02,21.46-0.02,32.2
			c0,0.34,0,0.68,0,1.02c1.96,0,3.78,0,5.69,0c0-0.39,0-0.74,0-1.09c0-9.37-0.01-18.74,0.02-28.1c0-0.64,0.21-1.35,0.53-1.91
			c0.96-1.73,2.01-3.4,3.06-5.16c-0.36-0.17-0.64-0.32-0.93-0.44c-2.37-1.02-4.73-2.03-7.1-3.05c-1.26-0.54-1.49-1.07-1.06-2.38
			C167.83,113.14,168.47,111.23,169.15,109.2z M141.28,157.17c0.04-0.13,0.07-0.18,0.07-0.23c0-8.51,0.03-17.02-0.01-25.52
			c-0.01-2.24-1.88-4.05-4.13-4.07c-3.79-0.04-7.59-0.03-11.38,0c-1.66,0.01-2.99,1.38-2.96,2.93c0.03,1.56,1.3,2.73,3,2.75
			c1.69,0.01,3.38,0,5.07,0c3.02,0,4.73,1.72,4.73,4.75c0,6.14,0,12.27,0,18.41c0,0.32,0,0.63,0,0.99
			C137.59,157.17,139.41,157.17,141.28,157.17z M152.73,109.53c-1,0.67-1.45,1.49-1.44,2.79c0.07,9.86,0.04,19.73,0.04,29.59
			c0,0.34,0,0.68,0,1.03c1.01,0,1.88,0,2.85,0c0-0.39,0-0.74,0-1.08c0-9.8-0.03-19.61,0.03-29.41
			C154.21,111.15,153.88,110.22,152.73,109.53z M137.09,115.95c0-1.02,0.05-1.91-0.03-2.79c-0.02-0.3-0.27-0.71-0.53-0.85
			c-2.05-1.07-4.11-2.1-6.19-3.11c-1.81-0.88-3.43-0.07-3.79,1.92c-0.5,2.77-0.95,5.54-1.39,8.32c-0.27,1.71-0.47,3.43-0.69,5.07
			c1.44,0,2.73,0,3.98,0c0.05-0.18,0.09-0.23,0.09-0.28c0.01-2.1,0.01-4.21,0.01-6.31c0-1.51,0.44-1.95,1.96-1.95
			C132.67,115.94,134.83,115.95,137.09,115.95z M126.77,147.2c0.67,0,1.19,0,1.74,0c0-3.79,0-7.53,0-11.32c-1.3,0-2.55,0-3.99,0
			C125.28,139.69,126.02,143.43,126.77,147.2z M155.55,151.57c-1.93,0-3.75,0-5.6,0c0,1.89,0,3.74,0,5.58c1.9,0,3.75,0,5.6,0
			C155.55,155.26,155.55,153.44,155.55,151.57z M149.59,148.65c2.13,0,4.19,0,6.32,0c0.23-0.92,0.45-1.82,0.69-2.78
			c-2.59,0-5.1,0-7.7,0C149.14,146.82,149.36,147.73,149.59,148.65z M175.64,113.77c-0.46,1.16-0.85,2.15-1.26,3.19
			c0.68,0.29,1.25,0.53,1.75,0.74C177.29,116.22,176.37,115.11,175.64,113.77z"/>
		<path class="st1" d="M169.86,176.93c-0.14,1.02-0.55,1.51-1.33,1.61c-0.35,0.05-0.72,0.07-1.06,0.01
			c-0.82-0.14-1.2,0.24-1.54,0.95c-0.35,0.75,0.2,1.17,0.43,1.69c0.06,0.14,0.4,0.19,0.61,0.2c0.47,0.03,0.95,0,1.42,0.02
			c0.66,0.02,1.23,0.35,1.31,0.98c0.06,0.49-0.09,1.22-0.43,1.49c-1.89,1.53-3.85,2.97-5.81,4.39c-0.68,0.49-1.35,0.24-1.91-0.32
			c-1.07-1.07-2.12-2.16-3.22-3.19c-0.29-0.27-0.75-0.49-1.13-0.49c-4.86-0.03-9.72-0.03-14.58,0c-0.38,0-0.84,0.23-1.13,0.49
			c-1.06,0.99-2.07,2.04-3.1,3.06c-0.88,0.87-1.44,0.92-2.41,0.2c-1.73-1.29-3.46-2.6-5.19-3.89c-0.6-0.45-0.97-0.98-0.71-1.75
			c0.26-0.75,0.85-1.02,1.61-0.99c0.27,0.01,0.54-0.04,0.8,0.01c0.97,0.2,1.33-0.5,1.42-1.17c0.06-0.5-0.3-1.07-0.54-1.57
			c-0.05-0.1-0.37-0.1-0.57-0.11c-0.47-0.02-0.99,0.11-1.41-0.04c-0.48-0.18-1.09-0.51-1.24-0.93c-0.15-0.41,0.03-1.22,0.36-1.48
			c1.91-1.55,3.89-3.01,5.89-4.44c0.65-0.47,1.3-0.23,1.84,0.31c1.07,1.07,2.12,2.16,3.23,3.19c0.31,0.29,0.8,0.52,1.21,0.53
			c4.83,0.04,9.66,0.04,14.5,0c0.41,0,0.9-0.24,1.21-0.52c1.07-0.98,2.07-2.04,3.1-3.06c0.84-0.83,1.41-0.89,2.34-0.2
			c1.76,1.31,3.53,2.61,5.25,3.96C169.43,176.17,169.66,176.66,169.86,176.93z M162.8,174.73c-1.03,1.05-2.04,2.05-3.01,3.08
			c-0.5,0.53-1.07,0.76-1.81,0.76c-5.39-0.02-10.78-0.02-16.17,0c-0.74,0-1.3-0.23-1.8-0.76c-0.97-1.03-1.98-2.03-3.02-3.07
			c-0.62,0.47-1.18,0.89-1.71,1.3c0.53,1.06,1,2.05,1.52,3.01c0.34,0.63,0.35,1.22,0.01,1.85c-0.53,0.99-1.01,2-1.54,3.05
			c0.57,0.42,1.12,0.84,1.72,1.29c1.07-1.08,2.02-2.15,3.08-3.08c0.44-0.39,1.13-0.71,1.7-0.71c5.42-0.05,10.84-0.05,16.26,0
			c0.58,0.01,1.26,0.33,1.7,0.72c1.08,0.95,2.05,2.03,3.08,3.08c0.63-0.47,1.17-0.87,1.71-1.28c-0.47-0.94-0.86-1.83-1.35-2.67
			c-0.52-0.88-0.55-1.68-0.02-2.57c0.51-0.85,0.91-1.78,1.37-2.7C163.96,175.58,163.42,175.18,162.8,174.73z"/>
	</g>
</g>
<g id="Layer_2">
	<circle class="st2" cx="150" cy="150" r="129.5"/>
</g>
</svg>
