<?xml version="1.0" encoding="utf-8"?>
<!-- Generator: Adobe Illustrator 24.0.2, SVG Export Plug-In . SVG Version: 6.00 Build 0)  -->
<svg version="1.1" xmlns="http://www.w3.org/2000/svg" xmlns:xlink="http://www.w3.org/1999/xlink" x="0px" y="0px"
	 viewBox="0 0 300 300" style="enable-background:new 0 0 300 300;" xml:space="preserve">
<style type="text/css">
	.st0{display:none;}
	.st1{fill:#FFFFFF;}
	.st2{fill:none;stroke:#FFFFFF;stroke-width:2;stroke-miterlimit:10;}
</style>
<g id="Layer_1">
	<rect x="-1031" y="-363" class="st0" width="1365" height="694"/>
	<g>
		<path class="st1" d="M104.98,142.87c0.26-13.23,5.1-25.2,14.8-35.16c0.69-0.71,1.38-1.4,2.09-2.09c0.83-0.8,1.58-0.84,2.39-0.04
			c3.43,3.39,6.83,6.79,10.24,10.19c0.71,0.71,0.72,1.43,0.1,2.24c-1.52,1.94-1.14,4.08,0.91,5.42c1.06,0.69,1.21,1.25,0.65,2.38
			c-0.83,1.64-0.66,3.21,0.47,4.37c1.17,1.2,2.75,1.39,4.45,0.54c1.14-0.57,1.68-0.4,2.44,0.75c1.26,1.92,3.47,2.28,5.27,0.86
			c0.97-0.77,1.57-0.7,2.54,0.28c7.81,7.81,15.61,15.61,23.42,23.42c6.36,6.37,12.72,12.74,19.07,19.11c1.24,1.24,1.21,1.81,0,3.08
			c-6.26,6.6-13.65,11.4-22.35,14.2c-19.96,6.4-42.63-0.59-55.49-17.14C108.72,165.92,105.1,155.33,104.98,142.87z M185.42,170.7
			c-0.33-0.25-0.7-0.48-1-0.77c-9.48-9.47-18.95-18.94-28.42-28.41c-1.89-1.89-3.79-3.77-5.66-5.68c-0.38-0.39-0.67-0.54-1.25-0.3
			c-2.63,1.09-5,0.58-7.14-1.28c-0.25-0.22-0.75-0.35-1.07-0.28c-5.08,1.12-9.08-2.91-7.99-8.04c0.07-0.31-0.04-0.77-0.25-1
			c-1.96-2.19-2.38-4.61-1.3-7.33c0.09-0.21,0.1-0.58-0.02-0.73c-0.73-0.88-1.52-1.71-2.28-2.55c-16.25,15.54-16.87,41.47-0.45,57.5
			C145.06,187.91,170.69,186.4,185.42,170.7z M187.41,173.01c-16.6,17.39-43.37,16.78-59.43,2.26
			c-7.69-6.96-12.46-15.56-13.87-25.83c-1.98-14.44,2.54-26.79,12.51-36.97c-1.24-1.3-2.42-2.53-3.6-3.77
			c-11.79,10.77-18.61,29.3-13.2,48.26c5.08,17.8,20.69,32.56,41.35,34.57c15.65,1.53,28.97-3.63,40.01-14.79
			C189.85,175.44,188.65,174.25,187.41,173.01z"/>
		<path class="st1" d="M136.14,165.57c0.01,0.8-0.66,1.45-1.48,1.44c-0.86-0.02-1.9-1.04-1.93-1.91c-0.03-0.83,0.59-1.49,1.41-1.5
			C135.02,163.58,136.13,164.68,136.14,165.57z"/>
		<path class="st1" d="M133.02,152.17c-0.01,0.8-0.69,1.47-1.48,1.44c-0.82-0.03-1.9-1.12-1.92-1.94c-0.02-0.8,0.64-1.47,1.45-1.47
			C131.97,150.19,133.03,151.26,133.02,152.17z"/>
		<path class="st1" d="M129.5,139.14c0.01,0.82-0.63,1.46-1.45,1.45c-0.82,0-1.92-1.06-1.96-1.89c-0.04-0.78,0.62-1.48,1.42-1.51
			C128.4,137.17,129.49,138.23,129.5,139.14z"/>
		<path class="st1" d="M151.6,172.82c0,0.78-0.62,1.41-1.39,1.43c-0.87,0.02-2.02-1.12-2-1.99c0.01-0.75,0.66-1.41,1.42-1.44
			C150.5,170.8,151.6,171.91,151.6,172.82z"/>
		<path class="st1" d="M172.58,164.87c0.87-0.02,2,1.08,1.99,1.97c-0.01,0.88-0.49,1.36-1.34,1.44c-0.88,0.08-2.01-0.99-2.05-1.89
			C171.14,165.59,171.78,164.89,172.58,164.87z"/>
		<path class="st1" d="M157.24,166.88c-0.02-0.83,0.61-1.47,1.44-1.46c0.9,0.01,1.97,1.09,1.96,1.99c-0.01,0.75-0.65,1.41-1.39,1.43
			C158.39,168.87,157.26,167.76,157.24,166.88z"/>
		<path class="st1" d="M159.7,152c0.83-0.03,1.93,1,1.99,1.87c0.06,0.8-0.58,1.49-1.4,1.52c-0.87,0.03-1.93-0.97-1.98-1.84
			C158.26,152.74,158.9,152.03,159.7,152z"/>
		<path class="st1" d="M144.59,146.29c0,0.75-0.65,1.42-1.4,1.44c-0.87,0.03-2-1.09-1.99-1.98c0-0.8,0.59-1.4,1.39-1.42
			C143.49,144.31,144.59,145.39,144.59,146.29z"/>
		<path class="st1" d="M145.99,161.87c-0.83-0.03-1.88-1.14-1.88-1.97c0.01-0.83,0.65-1.44,1.49-1.41c0.85,0.03,1.9,1.11,1.9,1.95
			C147.5,161.22,146.78,161.9,145.99,161.87z"/>
	</g>
</g>
<g id="Layer_2">
	<circle class="st2" cx="150" cy="150" r="129.5"/>
</g>
</svg>
