<?xml version="1.0" encoding="utf-8"?>
<!-- Generator: Adobe Illustrator 24.0.2, SVG Export Plug-In . SVG Version: 6.00 Build 0)  -->
<svg version="1.1" xmlns="http://www.w3.org/2000/svg" xmlns:xlink="http://www.w3.org/1999/xlink" x="0px" y="0px"
	 viewBox="0 0 300 300" style="enable-background:new 0 0 300 300;" xml:space="preserve">
<style type="text/css">
	.st0{display:none;}
	.st1{fill:#FFFFFF;}
	.st2{fill:none;stroke:#FFFFFF;stroke-width:2;stroke-miterlimit:10;}
</style>
<g id="Layer_1">
	<rect x="-365" y="-40" class="st0" width="1365" height="694"/>
	<g>
		<path class="st1" d="M188,146.22c0,2.17,0,4.35,0,6.52c-0.41,0.99-0.85,1.98-1.87,2.45c-0.61,0.28-0.66,0.66-0.66,1.21
			c0.01,6.49,0.01,12.99,0.01,19.48c0,2.51-0.9,4.68-2.7,6.44c-1.87,1.82-4.15,2.6-6.74,2.52c-0.59-0.02-0.97,0.09-1.28,0.69
			c-0.51,0.99-1.41,1.64-2.52,1.74c-1.27,0.11-2.56,0.12-3.83,0.01c-1.2-0.11-2.1-0.83-2.67-1.89c-0.22-0.41-0.46-0.54-0.91-0.54
			c-9.85,0.01-19.7,0.01-29.55,0c-0.42,0-0.65,0.11-0.86,0.51c-0.61,1.17-1.62,1.87-2.94,1.98c-1.08,0.09-2.17,0.08-3.25,0
			c-1.17-0.08-2.19-0.62-2.74-1.66c-0.4-0.76-0.92-0.84-1.65-0.84c-5.34,0-9.17-3.86-9.17-9.22c0-6.47-0.01-12.94,0.01-19.4
			c0-0.48-0.13-0.73-0.57-0.97c-1.26-0.69-1.93-1.81-1.96-3.26c-0.03-1.65-0.01-3.31-0.01-4.96c0.01-1.57,0.71-2.75,2.1-3.48
			c0.34-0.18,0.44-0.38,0.43-0.74c-0.02-1.65-0.05-3.31,0.01-4.96c0.1-2.8,1.26-5.09,3.48-6.81c1.82-1.41,3.91-1.93,6.18-1.83
			c0.43,0.02,0.7-0.08,0.92-0.51c0.71-1.33,1.88-1.98,3.38-2.02c0.38-0.01,0.77,0,1.2,0c0-1.32-0.02-2.53,0-3.74
			c0.11-5.69,4.41-10.11,10.02-10.16c6.81-0.06,13.63-0.05,20.44,0c4.65,0.04,8.65,3.19,9.65,7.7c0.37,1.66,0.25,3.43,0.34,5.15
			c0.02,0.33,0,0.66,0,1.04c0.52,0,0.91-0.02,1.3,0c1.4,0.08,2.53,0.67,3.21,1.92c0.27,0.5,0.56,0.68,1.09,0.6
			c0.19-0.03,0.39-0.01,0.59,0c5.06,0.04,8.95,3.92,8.98,8.98c0.01,1.56-0.01,3.11,0.01,4.67c0,0.2,0.11,0.52,0.26,0.59
			C186.94,144.02,187.61,145.01,188,146.22z M165.17,182.27c0-8.86,0-17.66,0-26.47c-1.68,0-3.3,0-4.89,0
			c-0.04,0.09-0.08,0.13-0.08,0.18c-0.01,1.48-0.02,2.96-0.02,4.44c-0.01,1.99-0.96,2.94-2.97,2.94c-4.77,0-9.53,0-14.3,0
			c-0.27,0-0.54-0.01-0.81-0.06c-1.23-0.2-2.07-1.14-2.12-2.39c-0.02-0.67-0.01-1.33-0.01-2c0-1.03,0-2.05,0-3.1
			c-1.74,0-3.37,0-5.02,0c0,8.85,0,17.63,0,26.46C145.03,182.27,155.07,182.27,165.17,182.27z M150.08,153.22
			c11.21,0,22.41,0,33.62,0c1.42,0,1.78-0.37,1.78-1.8c0-1.38,0-2.76,0-4.15c0-1.18-0.44-1.63-1.6-1.63c-22.54,0-45.07,0-67.61,0
			c-1.15,0-1.59,0.45-1.59,1.63c0,1.33,0,2.67,0,4c0,1.64,0.31,1.95,1.93,1.95C127.76,153.22,138.92,153.22,150.08,153.22z
			 M134.96,143.07c10.09,0,20.14,0,30.21,0c0-3.79,0-7.54,0-11.3c-10.1,0-20.13,0-30.21,0C134.96,135.56,134.96,139.3,134.96,143.07
			z M162.7,129.2c0.82,0,1.55,0.03,2.28-0.02c0.23-0.02,0.48-0.22,0.67-0.4c0.58-0.55,1.15-1.11,1.7-1.69
			c0.18-0.19,0.38-0.45,0.39-0.68c0.04-1.21,0.05-2.42,0-3.63c-0.18-4.31-3.29-7.43-7.61-7.47c-6.71-0.06-13.43-0.06-20.14,0
			c-3.77,0.03-6.79,2.47-7.42,6.09c-0.3,1.71-0.15,3.49-0.17,5.24c0,0.15,0.24,0.32,0.38,0.46c0.56,0.57,1.13,1.13,1.7,1.69
			c0.14,0.14,0.29,0.38,0.45,0.39c0.81,0.04,1.61,0.02,2.51,0.02c0-0.34,0-0.61,0-0.87c0-1.8-0.01-3.6,0.01-5.41
			c0.01-1.17,0.68-2.12,1.71-2.42c0.4-0.11,0.83-0.14,1.24-0.14c6.44-0.01,12.89-0.01,19.33,0c0.22,0,0.45,0,0.67,0.03
			c1.35,0.15,2.26,1.1,2.29,2.46c0.03,1.83,0.01,3.65,0.01,5.48C162.7,128.59,162.7,128.86,162.7,129.2z M117.23,155.79
			c-0.01,0.21-0.03,0.33-0.03,0.46c0,6.57-0.02,13.13,0.01,19.7c0.01,4.03,3.57,6.94,7.52,6.26c0-8.8,0-17.6,0-26.42
			C122.2,155.79,119.75,155.79,117.23,155.79z M175.42,182.21c0.08,0.04,0.12,0.08,0.16,0.08c4.12,0.45,7.36-2.45,7.37-6.59
			c0.01-6.39,0-12.79,0-19.18c0-0.24-0.03-0.47-0.04-0.73c-2.53,0-4.99,0-7.49,0C175.42,164.63,175.42,173.43,175.42,182.21z
			 M132.38,155.75c-1.47,0-2.83,0.04-4.18-0.02c-0.71-0.03-0.91,0.17-0.91,0.89c0.03,8.78,0.02,17.57,0.02,26.35
			c0,0.17-0.01,0.35,0.01,0.52c0.06,0.85,0.5,1.31,1.36,1.35c0.57,0.03,1.13,0.01,1.7,0.01c1.68,0,2-0.31,2-1.98
			c0-8.71,0-17.42,0-26.13C132.38,156.46,132.38,156.16,132.38,155.75z M167.77,155.75c0,0.36,0,0.6,0,0.84c0,8.81,0,17.62,0,26.42
			c0,0.15,0,0.3,0.01,0.44c0.06,0.9,0.5,1.34,1.4,1.38c0.57,0.02,1.13,0.01,1.7,0.01c1.63,0,1.96-0.33,1.96-1.95
			c0-8.73,0-17.47,0-26.2c0-0.17,0.06-0.38-0.02-0.51c-0.09-0.17-0.28-0.41-0.43-0.42C170.89,155.74,169.39,155.75,167.77,155.75z
			 M140.03,122.94c0,2.1,0,4.15,0,6.22c6.72,0,13.4,0,20.1,0c0-2.09,0-4.15,0-6.22C153.4,122.94,146.73,122.94,140.03,122.94z
			 M124.72,143.09c0-3.81,0-7.55,0-11.28c-3.71-0.53-6.9,1.77-7.42,5.38c-0.17,1.14-0.08,2.31-0.1,3.47c-0.01,0.8,0,1.61,0,2.43
			C119.76,143.09,122.22,143.09,124.72,143.09z M175.41,143.12c1.31,0,2.54,0,3.77,0c1.25,0,2.49,0,3.75,0
			c0-1.9,0.09-3.68-0.02-5.44c-0.23-3.81-3.78-6.55-7.5-5.85C175.41,135.55,175.41,139.29,175.41,143.12z M157.62,155.8
			c-2.11,0-4.15,0-6.22,0c-0.17,0.97,0.29,2.39-1.27,2.44c-1.67,0.05-1.22-1.44-1.37-2.44c-2.11,0-4.14,0-6.22,0
			c0,1.68,0,3.32,0,4.98c5.04,0,10.04,0,15.07,0C157.62,159.11,157.62,157.49,157.62,155.8z M132.28,143.08
			c0.04-0.08,0.08-0.12,0.08-0.16c0.01-4.15,0.02-8.29,0-12.44c0-0.81-0.52-1.24-1.35-1.27c-0.64-0.02-1.28-0.01-1.93-0.01
			c-1.37,0-1.77,0.4-1.78,1.76c0,3.8,0,7.6,0,11.4c0,0.24,0,0.47,0,0.71C129.05,143.08,130.67,143.08,132.28,143.08z M172.84,143.09
			c0-2.05,0-4.03,0-6c0-2.07,0.01-4.15,0-6.22c0-1.22-0.44-1.66-1.64-1.67c-0.54,0-1.09,0-1.63,0c-1.41,0-1.79,0.39-1.79,1.81
			c0,3.78,0,7.55,0,11.33c0,0.24,0,0.48,0,0.75C169.49,143.09,171.11,143.09,172.84,143.09z"/>
		<path class="st1" d="M150.07,177.25c3.55,0,7.11,0,10.66,0c0.25,0,0.49-0.01,0.74,0.02c0.76,0.08,1.21,0.54,1.22,1.23
			c0.01,0.72-0.46,1.2-1.25,1.28c-0.2,0.02-0.39,0.01-0.59,0.01c-7.18,0-14.36,0-21.55,0c-0.1,0-0.2,0-0.3,0
			c-1.01-0.02-1.56-0.47-1.55-1.28c0.01-0.81,0.55-1.25,1.58-1.25C142.72,177.25,146.39,177.25,150.07,177.25z"/>
	</g>
</g>
<g id="Layer_2">
	<circle class="st2" cx="150" cy="150" r="129.5"/>
</g>
</svg>
